<svg xmlns="http://www.w3.org/2000/svg" viewBox="120 120 560 560" fill="none">
  <rect width="800" height="800" fill="#F4F1E9"/><rect x="120" y="120" width="560" height="560" fill="none" stroke="#111315" stroke-width="2" opacity="0.15"/>
  <!-- noise field left -->
  <circle cx="40.0" cy="83.0" r="1" fill="#FF862E" opacity="0.15"/>
  <circle cx="62.0" cy="78.5" r="1.6" fill="#111315" opacity="0.22999999999999998"/>
  <circle cx="75.0" cy="78.5" r="2.2" fill="#111315" opacity="0.31"/>
  <circle cx="90.3" cy="83.0" r="2.8" fill="#111315" opacity="0.39"/>
  <circle cx="114.0" cy="78.4" r="3.4" fill="#111315" opacity="0.47"/>
  <circle cx="133.2" cy="78.6" r="1" fill="#111315" opacity="0.55"/>
  <circle cx="145.2" cy="83.0" r="1.6" fill="#111315" opacity="0.63"/>
  <circle cx="163.5" cy="78.4" r="2.2" fill="#111315" opacity="0.15"/>
  <circle cx="187.4" cy="78.6" r="2.8" fill="#111315" opacity="0.22999999999999998"/>
  <circle cx="203.6" cy="83.0" r="3.4" fill="#111315" opacity="0.31"/>
  <circle cx="216.2" cy="78.4" r="1" fill="#111315" opacity="0.39"/>
  <circle cx="237.4" cy="78.7" r="1.6" fill="#FF862E" opacity="0.47"/>
  <circle cx="260.0" cy="83.0" r="2.2" fill="#111315" opacity="0.55"/>
  <circle cx="273.6" cy="78.3" r="2.8" fill="#111315" opacity="0.63"/>
  <circle cx="288.1" cy="78.7" r="3.4" fill="#111315" opacity="0.15"/>
  <circle cx="311.4" cy="83.0" r="1" fill="#111315" opacity="0.22999999999999998"/>
  <circle cx="331.5" cy="78.3" r="1.6" fill="#111315" opacity="0.31"/>
  <circle cx="343.7" cy="78.8" r="2.2" fill="#111315" opacity="0.39"/>
  <circle cx="361.1" cy="83.0" r="2.8" fill="#111315" opacity="0.47"/>
  <circle cx="385.1" cy="78.2" r="3.4" fill="#111315" opacity="0.55"/>
  <circle cx="42.1" cy="96.8" r="1" fill="#111315" opacity="0.63"/>
  <circle cx="54.4" cy="101.0" r="1.6" fill="#111315" opacity="0.15"/>
  <circle cx="74.8" cy="96.2" r="2.2" fill="#FF862E" opacity="0.22999999999999998"/>
  <circle cx="97.9" cy="96.8" r="2.8" fill="#111315" opacity="0.31"/>
  <circle cx="112.2" cy="101.0" r="3.4" fill="#111315" opacity="0.39"/>
  <circle cx="126.0" cy="96.2" r="1" fill="#111315" opacity="0.47"/>
  <circle cx="148.9" cy="96.9" r="1.6" fill="#111315" opacity="0.55"/>
  <circle cx="169.8" cy="101.0" r="2.2" fill="#111315" opacity="0.63"/>
  <circle cx="182.2" cy="96.1" r="2.8" fill="#111315" opacity="0.15"/>
  <circle cx="198.7" cy="96.9" r="3.4" fill="#111315" opacity="0.22999999999999998"/>
  <circle cx="222.7" cy="101.0" r="1" fill="#111315" opacity="0.31"/>
  <circle cx="240.6" cy="96.1" r="1.6" fill="#111315" opacity="0.39"/>
  <circle cx="252.6" cy="97.0" r="2.2" fill="#111315" opacity="0.47"/>
  <circle cx="272.3" cy="100.9" r="2.8" fill="#FF862E" opacity="0.55"/>
  <circle cx="295.8" cy="96.0" r="3.4" fill="#111315" opacity="0.63"/>
  <circle cx="310.8" cy="97.0" r="1" fill="#111315" opacity="0.15"/>
  <circle cx="324.0" cy="100.9" r="1.6" fill="#111315" opacity="0.22999999999999998"/>
  <circle cx="346.3" cy="96.0" r="2.2" fill="#111315" opacity="0.31"/>
  <circle cx="367.9" cy="97.1" r="2.8" fill="#111315" opacity="0.39"/>
  <circle cx="380.7" cy="100.9" r="3.4" fill="#111315" opacity="0.47"/>
  <circle cx="36.4" cy="114.0" r="1" fill="#111315" opacity="0.55"/>
  <circle cx="60.2" cy="115.1" r="1.6" fill="#111315" opacity="0.63"/>
  <circle cx="79.0" cy="118.9" r="2.2" fill="#111315" opacity="0.15"/>
  <circle cx="91.0" cy="113.9" r="2.8" fill="#111315" opacity="0.22999999999999998"/>
  <circle cx="109.7" cy="115.2" r="3.4" fill="#FF862E" opacity="0.31"/>
  <circle cx="133.6" cy="118.9" r="1" fill="#111315" opacity="0.39"/>
  <circle cx="149.3" cy="113.9" r="1.6" fill="#111315" opacity="0.47"/>
  <circle cx="162.1" cy="115.2" r="2.2" fill="#111315" opacity="0.55"/>
  <circle cx="183.7" cy="118.9" r="2.8" fill="#111315" opacity="0.63"/>
  <circle cx="206.0" cy="113.9" r="3.4" fill="#111315" opacity="0.15"/>
  <circle cx="219.3" cy="115.3" r="1" fill="#111315" opacity="0.22999999999999998"/>
  <circle cx="234.2" cy="118.9" r="1.6" fill="#111315" opacity="0.31"/>
  <circle cx="257.7" cy="113.8" r="2.2" fill="#111315" opacity="0.39"/>
  <circle cx="277.4" cy="115.3" r="2.8" fill="#111315" opacity="0.47"/>
  <circle cx="289.4" cy="118.9" r="3.4" fill="#111315" opacity="0.55"/>
  <circle cx="307.3" cy="113.8" r="1" fill="#FF862E" opacity="0.63"/>
  <circle cx="331.3" cy="115.4" r="1.6" fill="#111315" opacity="0.15"/>
  <circle cx="347.9" cy="118.8" r="2.2" fill="#111315" opacity="0.22999999999999998"/>
  <circle cx="360.3" cy="113.7" r="2.8" fill="#111315" opacity="0.31"/>
  <circle cx="381.1" cy="115.4" r="3.4" fill="#111315" opacity="0.39"/>
  <circle cx="44.0" cy="136.8" r="1" fill="#111315" opacity="0.47"/>
  <circle cx="57.9" cy="131.7" r="1.6" fill="#111315" opacity="0.55"/>
  <circle cx="72.0" cy="133.5" r="2.2" fill="#111315" opacity="0.63"/>
  <circle cx="95.1" cy="136.8" r="2.8" fill="#111315" opacity="0.15"/>
  <circle cx="115.7" cy="131.7" r="3.4" fill="#111315" opacity="0.22999999999999998"/>
  <circle cx="127.9" cy="133.5" r="1" fill="#111315" opacity="0.31"/>
  <circle cx="144.9" cy="136.8" r="1.6" fill="#FF862E" opacity="0.39"/>
  <circle cx="168.9" cy="131.7" r="2.2" fill="#111315" opacity="0.47"/>
  <circle cx="186.4" cy="133.6" r="2.8" fill="#111315" opacity="0.55"/>
  <circle cx="198.5" cy="136.8" r="3.4" fill="#111315" opacity="0.63"/>
  <circle cx="218.5" cy="131.6" r="1" fill="#111315" opacity="0.15"/>
  <circle cx="241.9" cy="133.6" r="1.6" fill="#111315" opacity="0.22999999999999998"/>
  <circle cx="256.5" cy="136.8" r="2.2" fill="#111315" opacity="0.31"/>
  <circle cx="270.0" cy="131.6" r="2.8" fill="#111315" opacity="0.39"/>
  <circle cx="292.5" cy="133.7" r="3.4" fill="#111315" opacity="0.47"/>
  <circle cx="313.9" cy="136.7" r="1" fill="#111315" opacity="0.55"/>
  <circle cx="326.5" cy="131.6" r="1.6" fill="#111315" opacity="0.63"/>
  <circle cx="342.5" cy="133.7" r="2.2" fill="#FF862E" opacity="0.15"/>
  <circle cx="366.4" cy="136.7" r="2.8" fill="#111315" opacity="0.22999999999999998"/>
  <circle cx="384.8" cy="131.5" r="3.4" fill="#111315" opacity="0.31"/>
  <circle cx="36.8" cy="151.8" r="1" fill="#111315" opacity="0.39"/>
  <circle cx="56.0" cy="154.7" r="1.6" fill="#111315" opacity="0.47"/>
  <circle cx="79.7" cy="149.5" r="2.2" fill="#111315" opacity="0.55"/>
  <circle cx="95.1" cy="151.8" r="2.8" fill="#111315" opacity="0.63"/>
  <circle cx="108.0" cy="154.7" r="3.4" fill="#111315" opacity="0.15"/>
  <circle cx="129.9" cy="149.5" r="1" fill="#111315" opacity="0.22999999999999998"/>
  <circle cx="152.0" cy="151.9" r="1.6" fill="#111315" opacity="0.31"/>
  <circle cx="165.0" cy="154.7" r="2.2" fill="#111315" opacity="0.39"/>
  <circle cx="180.3" cy="149.4" r="2.8" fill="#FF862E" opacity="0.47"/>
  <circle cx="203.9" cy="151.9" r="3.4" fill="#111315" opacity="0.55"/>
  <circle cx="223.2" cy="154.6" r="1" fill="#111315" opacity="0.63"/>
  <circle cx="235.2" cy="149.4" r="1.6" fill="#111315" opacity="0.15"/>
  <circle cx="253.5" cy="152.0" r="2.2" fill="#111315" opacity="0.22999999999999998"/>
  <circle cx="277.4" cy="154.6" r="2.8" fill="#111315" opacity="0.31"/>
  <circle cx="293.6" cy="149.4" r="3.4" fill="#111315" opacity="0.39"/>
  <circle cx="306.2" cy="152.0" r="1" fill="#111315" opacity="0.47"/>
  <circle cx="327.4" cy="154.6" r="1.6" fill="#111315" opacity="0.55"/>
  <circle cx="350.0" cy="149.4" r="2.2" fill="#111315" opacity="0.63"/>
  <circle cx="363.6" cy="152.1" r="2.8" fill="#111315" opacity="0.15"/>
  <circle cx="378.1" cy="154.5" r="3.4" fill="#FF862E" opacity="0.22999999999999998"/>
  <circle cx="41.4" cy="167.3" r="1" fill="#111315" opacity="0.31"/>
  <circle cx="61.5" cy="170.1" r="1.6" fill="#111315" opacity="0.39"/>
  <circle cx="73.7" cy="172.5" r="2.2" fill="#111315" opacity="0.47"/>
  <circle cx="91.1" cy="167.3" r="2.8" fill="#111315" opacity="0.55"/>
  <circle cx="115.1" cy="170.2" r="3.4" fill="#111315" opacity="0.63"/>
  <circle cx="132.2" cy="172.5" r="1" fill="#111315" opacity="0.15"/>
  <circle cx="144.4" cy="167.3" r="1.6" fill="#111315" opacity="0.22999999999999998"/>
  <circle cx="164.8" cy="170.2" r="2.2" fill="#111315" opacity="0.31"/>
  <circle cx="187.9" cy="172.5" r="2.8" fill="#111315" opacity="0.39"/>
  <circle cx="202.2" cy="167.3" r="3.4" fill="#111315" opacity="0.47"/>
  <circle cx="216.0" cy="170.3" r="1" fill="#FF862E" opacity="0.55"/>
  <circle cx="238.8" cy="172.4" r="1.6" fill="#111315" opacity="0.63"/>
  <circle cx="259.8" cy="167.3" r="2.2" fill="#111315" opacity="0.15"/>
  <circle cx="272.2" cy="170.3" r="2.8" fill="#111315" opacity="0.22999999999999998"/>
  <circle cx="288.7" cy="172.4" r="3.4" fill="#111315" opacity="0.31"/>
  <circle cx="312.6" cy="167.2" r="1" fill="#111315" opacity="0.39"/>
  <circle cx="330.6" cy="170.4" r="1.6" fill="#111315" opacity="0.47"/>
  <circle cx="342.7" cy="172.4" r="2.2" fill="#111315" opacity="0.55"/>
  <circle cx="362.2" cy="167.2" r="2.8" fill="#111315" opacity="0.63"/>
  <circle cx="385.8" cy="170.4" r="3.4" fill="#111315" opacity="0.15"/>
  <circle cx="40.8" cy="190.3" r="1" fill="#111315" opacity="0.22999999999999998"/>
  <circle cx="54.0" cy="185.2" r="1.6" fill="#FF862E" opacity="0.31"/>
  <circle cx="76.2" cy="188.5" r="2.2" fill="#111315" opacity="0.39"/>
  <circle cx="97.9" cy="190.3" r="2.8" fill="#111315" opacity="0.47"/>
  <circle cx="110.8" cy="185.2" r="3.4" fill="#111315" opacity="0.55"/>
  <circle cx="126.4" cy="188.5" r="1" fill="#111315" opacity="0.63"/>
  <circle cx="150.2" cy="190.3" r="1.6" fill="#111315" opacity="0.15"/>
  <circle cx="169.1" cy="185.2" r="2.2" fill="#111315" opacity="0.22999999999999998"/>
  <circle cx="181.0" cy="188.6" r="2.8" fill="#111315" opacity="0.31"/>
  <circle cx="199.7" cy="190.2" r="3.4" fill="#111315" opacity="0.39"/>
  <circle cx="223.5" cy="185.2" r="1" fill="#111315" opacity="0.47"/>
  <circle cx="239.4" cy="188.6" r="1.6" fill="#111315" opacity="0.55"/>
  <circle cx="252.1" cy="190.2" r="2.2" fill="#FF862E" opacity="0.63"/>
  <circle cx="273.6" cy="185.1" r="2.8" fill="#111315" opacity="0.15"/>
  <circle cx="296.0" cy="188.7" r="3.4" fill="#111315" opacity="0.22999999999999998"/>
  <circle cx="309.3" cy="190.2" r="1" fill="#111315" opacity="0.31"/>
  <circle cx="324.2" cy="185.1" r="1.6" fill="#111315" opacity="0.39"/>
  <circle cx="347.6" cy="188.7" r="2.2" fill="#111315" opacity="0.47"/>
  <circle cx="367.4" cy="190.1" r="2.8" fill="#111315" opacity="0.55"/>
  <circle cx="379.5" cy="185.1" r="3.4" fill="#111315" opacity="0.63"/>
  <circle cx="37.2" cy="206.8" r="1" fill="#111315" opacity="0.15"/>
  <circle cx="61.2" cy="208.1" r="1.6" fill="#111315" opacity="0.22999999999999998"/>
  <circle cx="77.9" cy="203.1" r="2.2" fill="#111315" opacity="0.31"/>
  <circle cx="90.3" cy="206.8" r="2.8" fill="#FF862E" opacity="0.39"/>
  <circle cx="111.0" cy="208.1" r="3.4" fill="#111315" opacity="0.47"/>
  <circle cx="134.0" cy="203.1" r="1" fill="#111315" opacity="0.55"/>
  <circle cx="147.9" cy="206.9" r="1.6" fill="#111315" opacity="0.63"/>
  <circle cx="162.0" cy="208.0" r="2.2" fill="#111315" opacity="0.15"/>
  <circle cx="185.1" cy="203.1" r="2.8" fill="#111315" opacity="0.22999999999999998"/>
  <circle cx="205.7" cy="206.9" r="3.4" fill="#111315" opacity="0.31"/>
  <circle cx="218.0" cy="208.0" r="1" fill="#111315" opacity="0.39"/>
  <circle cx="234.8" cy="203.1" r="1.6" fill="#111315" opacity="0.47"/>
  <circle cx="258.8" cy="207.0" r="2.2" fill="#111315" opacity="0.55"/>
  <circle cx="276.4" cy="208.0" r="2.8" fill="#111315" opacity="0.63"/>
  <circle cx="288.5" cy="203.1" r="3.4" fill="#FF862E" opacity="0.15"/>
  <circle cx="308.5" cy="207.0" r="1" fill="#111315" opacity="0.22999999999999998"/>
  <circle cx="331.9" cy="207.9" r="1.6" fill="#111315" opacity="0.31"/>
  <circle cx="346.5" cy="203.0" r="2.2" fill="#111315" opacity="0.39"/>
  <circle cx="360.0" cy="207.1" r="2.8" fill="#111315" opacity="0.47"/>
  <circle cx="382.5" cy="207.9" r="3.4" fill="#111315" opacity="0.55"/>
  <circle cx="43.9" cy="221.0" r="1" fill="#111315" opacity="0.63"/>
  <circle cx="56.5" cy="225.1" r="1.6" fill="#111315" opacity="0.15"/>
  <circle cx="72.5" cy="225.8" r="2.2" fill="#111315" opacity="0.22999999999999998"/>
  <circle cx="96.4" cy="221.0" r="2.8" fill="#111315" opacity="0.31"/>
  <circle cx="114.9" cy="225.2" r="3.4" fill="#111315" opacity="0.39"/>
  <circle cx="126.9" cy="225.8" r="1" fill="#FF862E" opacity="0.47"/>
  <circle cx="145.9" cy="221.0" r="1.6" fill="#111315" opacity="0.55"/>
  <circle cx="169.7" cy="225.2" r="2.2" fill="#111315" opacity="0.63"/>
  <circle cx="185.1" cy="225.8" r="2.8" fill="#111315" opacity="0.15"/>
  <circle cx="198.0" cy="221.0" r="3.4" fill="#111315" opacity="0.22999999999999998"/>
  <circle cx="219.9" cy="225.2" r="1" fill="#111315" opacity="0.31"/>
  <circle cx="242.0" cy="225.7" r="1.6" fill="#111315" opacity="0.39"/>
  <circle cx="255.1" cy="221.0" r="2.2" fill="#111315" opacity="0.47"/>
  <circle cx="270.3" cy="225.3" r="2.8" fill="#111315" opacity="0.55"/>
  <circle cx="293.9" cy="225.7" r="3.4" fill="#111315" opacity="0.63"/>
  <circle cx="313.3" cy="221.0" r="1" fill="#111315" opacity="0.15"/>
  <circle cx="325.3" cy="225.3" r="1.6" fill="#FF862E" opacity="0.22999999999999998"/>
  <circle cx="343.4" cy="225.6" r="2.2" fill="#111315" opacity="0.31"/>
  <circle cx="367.4" cy="221.0" r="2.8" fill="#111315" opacity="0.39"/>
  <circle cx="383.7" cy="225.4" r="3.4" fill="#111315" opacity="0.47"/>
  <circle cx="36.2" cy="243.6" r="1" fill="#111315" opacity="0.55"/>
  <circle cx="57.3" cy="239.0" r="1.6" fill="#111315" opacity="0.63"/>
  <circle cx="80.0" cy="243.4" r="2.2" fill="#111315" opacity="0.15"/>
  <circle cx="93.7" cy="243.6" r="2.8" fill="#111315" opacity="0.22999999999999998"/>
  <circle cx="108.1" cy="239.0" r="3.4" fill="#111315" opacity="0.31"/>
  <circle cx="131.3" cy="243.5" r="1" fill="#111315" opacity="0.39"/>
  <circle cx="151.6" cy="243.5" r="1.6" fill="#111315" opacity="0.47"/>
  <circle cx="163.7" cy="239.0" r="2.2" fill="#FF862E" opacity="0.55"/>
  <circle cx="181.0" cy="243.5" r="2.8" fill="#111315" opacity="0.63"/>
  <circle cx="205.0" cy="243.5" r="3.4" fill="#111315" opacity="0.15"/>
  <circle cx="222.2" cy="239.0" r="1" fill="#111315" opacity="0.22999999999999998"/>
  <circle cx="234.4" cy="243.6" r="1.6" fill="#111315" opacity="0.31"/>
  <circle cx="254.7" cy="243.4" r="2.2" fill="#111315" opacity="0.39"/>
  <circle cx="277.9" cy="239.0" r="2.8" fill="#111315" opacity="0.47"/>
  <circle cx="292.3" cy="243.6" r="3.4" fill="#111315" opacity="0.55"/>
  <circle cx="306.0" cy="243.4" r="1" fill="#111315" opacity="0.63"/>
  <circle cx="328.8" cy="239.0" r="1.6" fill="#111315" opacity="0.15"/>
  <circle cx="349.8" cy="243.6" r="2.2" fill="#111315" opacity="0.22999999999999998"/>
  <circle cx="362.3" cy="243.3" r="2.8" fill="#FF862E" opacity="0.31"/>
  <circle cx="378.7" cy="239.0" r="3.4" fill="#111315" opacity="0.39"/>
  <circle cx="42.6" cy="261.7" r="1" fill="#111315" opacity="0.47"/>
  <circle cx="60.7" cy="261.3" r="1.6" fill="#111315" opacity="0.55"/>
  <circle cx="72.7" cy="257.0" r="2.2" fill="#111315" opacity="0.63"/>
  <circle cx="92.2" cy="261.7" r="2.8" fill="#111315" opacity="0.15"/>
  <circle cx="115.8" cy="261.2" r="3.4" fill="#111315" opacity="0.22999999999999998"/>
  <circle cx="130.9" cy="257.0" r="1" fill="#111315" opacity="0.31"/>
  <circle cx="144.0" cy="261.8" r="1.6" fill="#111315" opacity="0.39"/>
  <circle cx="166.2" cy="261.2" r="2.2" fill="#111315" opacity="0.47"/>
  <circle cx="187.9" cy="257.0" r="2.8" fill="#111315" opacity="0.55"/>
  <circle cx="200.8" cy="261.8" r="3.4" fill="#FF862E" opacity="0.63"/>
  <circle cx="216.4" cy="261.2" r="1" fill="#111315" opacity="0.15"/>
  <circle cx="240.1" cy="257.0" r="1.6" fill="#111315" opacity="0.22999999999999998"/>
  <circle cx="259.1" cy="261.9" r="2.2" fill="#111315" opacity="0.31"/>
  <circle cx="271.1" cy="261.1" r="2.8" fill="#111315" opacity="0.39"/>
  <circle cx="289.7" cy="257.0" r="3.4" fill="#111315" opacity="0.47"/>
  <circle cx="313.5" cy="261.9" r="1" fill="#111315" opacity="0.55"/>
  <circle cx="329.4" cy="261.1" r="1.6" fill="#111315" opacity="0.63"/>
  <circle cx="342.1" cy="257.0" r="2.2" fill="#111315" opacity="0.15"/>
  <circle cx="363.6" cy="261.9" r="2.8" fill="#111315" opacity="0.22999999999999998"/>
  <circle cx="386.0" cy="261.0" r="3.4" fill="#111315" opacity="0.31"/>
  <circle cx="39.4" cy="275.1" r="1" fill="#FF862E" opacity="0.39"/>
  <circle cx="54.2" cy="280.0" r="1.6" fill="#111315" opacity="0.47"/>
  <circle cx="77.6" cy="279.0" r="2.2" fill="#111315" opacity="0.55"/>
  <circle cx="97.4" cy="275.1" r="2.8" fill="#111315" opacity="0.63"/>
  <circle cx="109.5" cy="280.0" r="3.4" fill="#111315" opacity="0.15"/>
  <circle cx="127.2" cy="278.9" r="1" fill="#111315" opacity="0.22999999999999998"/>
  <circle cx="151.2" cy="275.1" r="1.6" fill="#111315" opacity="0.31"/>
  <circle cx="168.0" cy="280.0" r="2.2" fill="#111315" opacity="0.39"/>
  <circle cx="180.3" cy="278.9" r="2.8" fill="#111315" opacity="0.47"/>
  <circle cx="201.0" cy="275.1" r="3.4" fill="#111315" opacity="0.55"/>
  <circle cx="224.0" cy="280.1" r="1" fill="#111315" opacity="0.63"/>
  <circle cx="238.0" cy="278.8" r="1.6" fill="#FF862E" opacity="0.15"/>
  <circle cx="252.0" cy="275.1" r="2.2" fill="#111315" opacity="0.22999999999999998"/>
  <circle cx="275.0" cy="280.1" r="2.8" fill="#111315" opacity="0.31"/>
  <circle cx="295.7" cy="278.8" r="3.4" fill="#111315" opacity="0.39"/>
  <circle cx="308.0" cy="275.1" r="1" fill="#111315" opacity="0.47"/>
  <circle cx="324.8" cy="280.2" r="1.6" fill="#111315" opacity="0.55"/>
  <circle cx="348.8" cy="278.7" r="2.2" fill="#111315" opacity="0.63"/>
  <circle cx="366.5" cy="275.1" r="2.8" fill="#111315" opacity="0.15"/>
  <circle cx="378.6" cy="280.2" r="3.4" fill="#111315" opacity="0.22999999999999998"/>
  <circle cx="38.4" cy="296.7" r="1" fill="#111315" opacity="0.31"/>
  <circle cx="61.8" cy="293.1" r="1.6" fill="#111315" opacity="0.39"/>
  <circle cx="76.6" cy="298.2" r="2.2" fill="#FF862E" opacity="0.47"/>
  <circle cx="90.0" cy="296.6" r="2.8" fill="#111315" opacity="0.55"/>
  <circle cx="112.4" cy="293.2" r="3.4" fill="#111315" opacity="0.63"/>
  <circle cx="133.9" cy="298.3" r="1" fill="#111315" opacity="0.15"/>
  <circle cx="146.6" cy="296.6" r="1.6" fill="#111315" opacity="0.22999999999999998"/>
  <circle cx="162.5" cy="293.2" r="2.2" fill="#111315" opacity="0.31"/>
  <circle cx="186.3" cy="298.3" r="2.8" fill="#111315" opacity="0.39"/>
  <circle cx="204.9" cy="296.5" r="3.4" fill="#111315" opacity="0.47"/>
  <circle cx="216.9" cy="293.2" r="1" fill="#111315" opacity="0.55"/>
  <circle cx="235.9" cy="298.3" r="1.6" fill="#111315" opacity="0.63"/>
  <circle cx="259.6" cy="296.5" r="2.2" fill="#111315" opacity="0.15"/>
  <circle cx="275.2" cy="293.2" r="2.8" fill="#FF862E" opacity="0.22999999999999998"/>
  <circle cx="288.1" cy="298.4" r="3.4" fill="#111315" opacity="0.31"/>
  <circle cx="309.8" cy="296.4" r="1" fill="#111315" opacity="0.39"/>
  <circle cx="332.0" cy="293.2" r="1.6" fill="#111315" opacity="0.47"/>
  <circle cx="345.1" cy="298.4" r="2.2" fill="#111315" opacity="0.55"/>
  <circle cx="360.2" cy="296.4" r="2.8" fill="#111315" opacity="0.63"/>
  <circle cx="383.8" cy="293.2" r="3.4" fill="#111315" opacity="0.15"/>
  <circle cx="43.3" cy="316.4" r="1" fill="#111315" opacity="0.22999999999999998"/>
  <circle cx="55.3" cy="314.3" r="1.6" fill="#111315" opacity="0.31"/>
  <circle cx="73.4" cy="311.3" r="2.2" fill="#111315" opacity="0.39"/>
  <circle cx="97.4" cy="316.4" r="2.8" fill="#111315" opacity="0.47"/>
  <circle cx="113.7" cy="314.3" r="3.4" fill="#FF862E" opacity="0.55"/>
  <circle cx="126.2" cy="311.3" r="1" fill="#111315" opacity="0.63"/>
  <circle cx="147.2" cy="316.5" r="1.6" fill="#111315" opacity="0.15"/>
  <circle cx="170.0" cy="314.2" r="2.2" fill="#111315" opacity="0.22999999999999998"/>
  <circle cx="183.7" cy="311.3" r="2.8" fill="#111315" opacity="0.31"/>
  <circle cx="198.1" cy="316.5" r="3.4" fill="#111315" opacity="0.39"/>
  <circle cx="221.3" cy="314.2" r="1" fill="#111315" opacity="0.47"/>
  <circle cx="241.6" cy="311.3" r="1.6" fill="#111315" opacity="0.55"/>
  <circle cx="253.8" cy="316.5" r="2.2" fill="#111315" opacity="0.63"/>
  <circle cx="271.0" cy="314.1" r="2.8" fill="#111315" opacity="0.15"/>
  <circle cx="295.0" cy="311.4" r="3.4" fill="#111315" opacity="0.22999999999999998"/>
  <circle cx="312.2" cy="316.6" r="1" fill="#FF862E" opacity="0.31"/>
  <circle cx="324.4" cy="314.1" r="1.6" fill="#111315" opacity="0.39"/>
  <circle cx="344.7" cy="311.4" r="2.2" fill="#111315" opacity="0.47"/>
  <circle cx="367.9" cy="316.6" r="2.8" fill="#111315" opacity="0.55"/>
  <circle cx="382.3" cy="314.0" r="3.4" fill="#111315" opacity="0.63"/>
  <circle cx="36.0" cy="329.4" r="1" fill="#111315" opacity="0.15"/>
  <circle cx="58.7" cy="334.6" r="1.6" fill="#111315" opacity="0.22999999999999998"/>
  <circle cx="79.8" cy="332.0" r="2.2" fill="#111315" opacity="0.31"/>
  <circle cx="92.3" cy="329.4" r="2.8" fill="#111315" opacity="0.39"/>
  <circle cx="108.6" cy="334.6" r="3.4" fill="#111315" opacity="0.47"/>
  <circle cx="132.6" cy="331.9" r="1" fill="#111315" opacity="0.55"/>
  <circle cx="150.7" cy="329.5" r="1.6" fill="#FF862E" opacity="0.63"/>
  <circle cx="162.7" cy="334.7" r="2.2" fill="#111315" opacity="0.15"/>
  <circle cx="182.1" cy="331.9" r="2.8" fill="#111315" opacity="0.22999999999999998"/>
  <circle cx="205.7" cy="329.5" r="3.4" fill="#111315" opacity="0.31"/>
  <circle cx="220.9" cy="334.7" r="1" fill="#111315" opacity="0.39"/>
  <circle cx="234.0" cy="331.8" r="1.6" fill="#111315" opacity="0.47"/>
  <circle cx="256.1" cy="329.5" r="2.2" fill="#111315" opacity="0.55"/>
  <circle cx="278.0" cy="334.7" r="2.8" fill="#111315" opacity="0.63"/>
  <circle cx="290.9" cy="331.8" r="3.4" fill="#111315" opacity="0.15"/>
  <circle cx="306.3" cy="329.5" r="1" fill="#111315" opacity="0.22999999999999998"/>
  <circle cx="330.1" cy="334.7" r="1.6" fill="#111315" opacity="0.31"/>
  <circle cx="349.1" cy="331.7" r="2.2" fill="#FF862E" opacity="0.39"/>
  <circle cx="361.1" cy="329.6" r="2.8" fill="#111315" opacity="0.47"/>
  <circle cx="379.6" cy="334.7" r="3.4" fill="#111315" opacity="0.55"/>
  <circle cx="43.5" cy="349.7" r="1" fill="#111315" opacity="0.63"/>
  <circle cx="59.5" cy="347.6" r="1.6" fill="#111315" opacity="0.15"/>
  <circle cx="72.1" cy="352.8" r="2.2" fill="#111315" opacity="0.22999999999999998"/>
  <circle cx="93.5" cy="349.6" r="2.8" fill="#111315" opacity="0.31"/>
  <circle cx="116.0" cy="347.6" r="3.4" fill="#111315" opacity="0.39"/>
  <circle cx="129.5" cy="352.8" r="1" fill="#111315" opacity="0.47"/>
  <circle cx="144.1" cy="349.6" r="1.6" fill="#111315" opacity="0.55"/>
  <circle cx="167.5" cy="347.7" r="2.2" fill="#111315" opacity="0.63"/>
  <circle cx="187.5" cy="352.8" r="2.8" fill="#FF862E" opacity="0.15"/>
  <circle cx="199.6" cy="349.5" r="3.4" fill="#111315" opacity="0.22999999999999998"/>
  <circle cx="217.2" cy="347.7" r="1" fill="#111315" opacity="0.31"/>
  <circle cx="241.2" cy="352.8" r="1.6" fill="#111315" opacity="0.39"/>
  <circle cx="258.0" cy="349.5" r="2.2" fill="#111315" opacity="0.47"/>
  <circle cx="270.3" cy="347.7" r="2.8" fill="#111315" opacity="0.55"/>
  <circle cx="290.9" cy="352.8" r="3.4" fill="#111315" opacity="0.63"/>
  <circle cx="314.0" cy="349.4" r="1" fill="#111315" opacity="0.15"/>
  <circle cx="328.0" cy="347.8" r="1.6" fill="#111315" opacity="0.22999999999999998"/>
  <circle cx="342.0" cy="352.8" r="2.2" fill="#111315" opacity="0.31"/>
  <circle cx="365.0" cy="349.4" r="2.8" fill="#111315" opacity="0.39"/>
  <circle cx="385.7" cy="347.8" r="3.4" fill="#FF862E" opacity="0.47"/>
  <circle cx="38.1" cy="370.9" r="1" fill="#111315" opacity="0.55"/>
  <circle cx="54.8" cy="367.3" r="1.6" fill="#111315" opacity="0.63"/>
  <circle cx="78.8" cy="365.8" r="2.2" fill="#111315" opacity="0.15"/>
  <circle cx="96.5" cy="370.9" r="2.8" fill="#111315" opacity="0.22999999999999998"/>
  <circle cx="108.6" cy="367.3" r="3.4" fill="#111315" opacity="0.31"/>
  <circle cx="128.4" cy="365.9" r="1" fill="#111315" opacity="0.39"/>
  <circle cx="151.8" cy="370.9" r="1.6" fill="#111315" opacity="0.47"/>
  <circle cx="166.6" cy="367.2" r="2.2" fill="#111315" opacity="0.55"/>
  <circle cx="180.0" cy="365.9" r="2.8" fill="#111315" opacity="0.63"/>
  <circle cx="202.4" cy="370.9" r="3.4" fill="#111315" opacity="0.15"/>
  <circle cx="223.9" cy="367.2" r="1" fill="#FF862E" opacity="0.22999999999999998"/>
  <circle cx="236.6" cy="365.9" r="1.6" fill="#111315" opacity="0.31"/>
  <circle cx="252.5" cy="370.9" r="2.2" fill="#111315" opacity="0.39"/>
  <circle cx="276.3" cy="367.1" r="2.8" fill="#111315" opacity="0.47"/>
  <circle cx="294.9" cy="366.0" r="3.4" fill="#111315" opacity="0.55"/>
  <circle cx="306.9" cy="370.9" r="1" fill="#111315" opacity="0.63"/>
  <circle cx="325.8" cy="367.1" r="1.6" fill="#111315" opacity="0.15"/>
  <circle cx="349.6" cy="366.0" r="2.2" fill="#111315" opacity="0.22999999999999998"/>
  <circle cx="365.2" cy="370.9" r="2.8" fill="#111315" opacity="0.31"/>
  <circle cx="378.1" cy="367.0" r="3.4" fill="#111315" opacity="0.39"/>
  <circle cx="39.8" cy="384.0" r="1" fill="#111315" opacity="0.47"/>
  <circle cx="62.0" cy="388.9" r="1.6" fill="#FF862E" opacity="0.55"/>
  <circle cx="75.2" cy="385.0" r="2.2" fill="#111315" opacity="0.63"/>
  <circle cx="90.2" cy="384.1" r="2.8" fill="#111315" opacity="0.15"/>
  <circle cx="113.8" cy="389.0" r="3.4" fill="#111315" opacity="0.22999999999999998"/>
  <circle cx="133.3" cy="384.9" r="1" fill="#111315" opacity="0.31"/>
  <circle cx="145.4" cy="384.1" r="1.6" fill="#111315" opacity="0.39"/>
  <circle cx="163.4" cy="389.0" r="2.2" fill="#111315" opacity="0.47"/>
  <circle cx="187.3" cy="384.9" r="2.8" fill="#111315" opacity="0.55"/>
  <circle cx="203.8" cy="384.2" r="3.4" fill="#111315" opacity="0.63"/>
  <circle cx="216.2" cy="389.0" r="1" fill="#111315" opacity="0.15"/>
  <circle cx="237.2" cy="384.8" r="1.6" fill="#111315" opacity="0.22999999999999998"/>
  <circle cx="260.0" cy="384.2" r="2.2" fill="#FF862E" opacity="0.31"/>
  <circle cx="273.8" cy="389.0" r="2.8" fill="#111315" opacity="0.39"/>
  <circle cx="288.1" cy="384.8" r="3.4" fill="#111315" opacity="0.47"/>
  <circle cx="311.2" cy="384.2" r="1" fill="#111315" opacity="0.55"/>
  <circle cx="331.6" cy="389.0" r="1.6" fill="#111315" opacity="0.63"/>
  <circle cx="343.8" cy="384.7" r="2.2" fill="#111315" opacity="0.15"/>
  <circle cx="360.9" cy="384.3" r="2.8" fill="#111315" opacity="0.22999999999999998"/>
  <circle cx="385.0" cy="389.0" r="3.4" fill="#111315" opacity="0.31"/>
  <circle cx="42.3" cy="402.7" r="1" fill="#111315" opacity="0.39"/>
  <circle cx="54.5" cy="402.3" r="1.6" fill="#111315" opacity="0.47"/>
  <circle cx="74.6" cy="407.0" r="2.2" fill="#111315" opacity="0.55"/>
  <circle cx="97.9" cy="402.7" r="2.8" fill="#FF862E" opacity="0.63"/>
  <circle cx="112.4" cy="402.4" r="3.4" fill="#111315" opacity="0.15"/>
  <circle cx="126.0" cy="407.0" r="1" fill="#111315" opacity="0.22999999999999998"/>
  <circle cx="148.7" cy="402.6" r="1.6" fill="#111315" opacity="0.31"/>
  <circle cx="169.8" cy="402.4" r="2.2" fill="#111315" opacity="0.39"/>
  <circle cx="182.4" cy="407.0" r="2.8" fill="#111315" opacity="0.47"/>
  <circle cx="198.6" cy="402.6" r="3.4" fill="#111315" opacity="0.55"/>
  <circle cx="222.5" cy="402.4" r="1" fill="#111315" opacity="0.63"/>
  <circle cx="240.8" cy="407.0" r="1.6" fill="#111315" opacity="0.15"/>
  <circle cx="252.8" cy="402.5" r="2.2" fill="#111315" opacity="0.22999999999999998"/>
  <circle cx="272.1" cy="402.5" r="2.8" fill="#111315" opacity="0.31"/>
  <circle cx="295.7" cy="407.0" r="3.4" fill="#FF862E" opacity="0.39"/>
  <circle cx="311.0" cy="402.5" r="1" fill="#111315" opacity="0.47"/>
  <circle cx="324.0" cy="402.5" r="1.6" fill="#111315" opacity="0.55"/>
  <circle cx="346.1" cy="407.0" r="2.2" fill="#111315" opacity="0.63"/>
  <circle cx="368.0" cy="402.4" r="2.8" fill="#111315" opacity="0.15"/>
  <circle cx="380.9" cy="402.6" r="3.4" fill="#111315" opacity="0.22999999999999998"/>
  <circle cx="36.3" cy="425.0" r="1" fill="#111315" opacity="0.31"/>
  <circle cx="60.0" cy="420.4" r="1.6" fill="#111315" opacity="0.39"/>
  <circle cx="79.2" cy="420.6" r="2.2" fill="#111315" opacity="0.47"/>
  <circle cx="91.2" cy="425.0" r="2.8" fill="#111315" opacity="0.55"/>
  <circle cx="109.6" cy="420.4" r="3.4" fill="#111315" opacity="0.63"/>
  <circle cx="133.5" cy="420.7" r="1" fill="#FF862E" opacity="0.15"/>
  <circle cx="149.5" cy="425.0" r="1.6" fill="#111315" opacity="0.22999999999999998"/>
  <circle cx="162.1" cy="420.3" r="2.2" fill="#111315" opacity="0.31"/>
  <circle cx="183.5" cy="420.7" r="2.8" fill="#111315" opacity="0.39"/>
  <circle cx="206.0" cy="425.0" r="3.4" fill="#111315" opacity="0.47"/>
  <circle cx="219.5" cy="420.3" r="1" fill="#111315" opacity="0.55"/>
  <circle cx="234.1" cy="420.8" r="1.6" fill="#111315" opacity="0.63"/>
  <circle cx="257.5" cy="425.0" r="2.2" fill="#111315" opacity="0.15"/>
  <circle cx="277.5" cy="420.2" r="2.8" fill="#111315" opacity="0.22999999999999998"/>
  <circle cx="289.6" cy="420.8" r="3.4" fill="#111315" opacity="0.31"/>
  <circle cx="307.1" cy="425.0" r="1" fill="#111315" opacity="0.39"/>
  <circle cx="331.1" cy="420.2" r="1.6" fill="#FF862E" opacity="0.47"/>
  <circle cx="348.1" cy="420.9" r="2.2" fill="#111315" opacity="0.55"/>
  <circle cx="360.3" cy="425.0" r="2.8" fill="#111315" opacity="0.63"/>
  <circle cx="380.9" cy="420.1" r="3.4" fill="#111315" opacity="0.15"/>
  <!-- clean signal panel right -->
  <rect x="400" y="80" width="360" height="640" fill="#F4F1E9" stroke="#111315" stroke-width="2"/>
  <path d="M440 480 C 500 480, 520 200, 580 280 S 660 520, 720 360" stroke="#23C5EF" stroke-width="4" fill="none" stroke-linecap="round"/>
  <line x1="440" y1="520" x2="720" y2="520" stroke="#111315" stroke-width="1" opacity="0.2"/>
  <text x="580" y="160" text-anchor="middle" font-family="ui-monospace,monospace" font-size="14" fill="#111315" letter-spacing="4">SIGNAL</text>
  <text x="220" y="720" text-anchor="middle" font-family="ui-monospace,monospace" font-size="14" fill="#666963" letter-spacing="4">NOISE</text>
  <text x="400" y="50" text-anchor="middle" font-family="ui-monospace,monospace" font-size="13" fill="#111315" letter-spacing="6">SIGNAL / NOISE</text>
  <rect x="398" y="80" width="4" height="640" fill="#FF862E"/>
</svg>
