<svg xmlns="http://www.w3.org/2000/svg" viewBox="0 0 800 800" fill="none">
  <!-- Left Side: Stippled Particulate Noise -->
  <circle cx="30.0" cy="57.0" r="1.5" fill="#FF862E" opacity="0.30"/>
  <circle cx="59.9" cy="46.5" r="2.7" fill="#F4F1E9" opacity="0.45"/>
  <circle cx="72.0" cy="46.6" r="3.9" fill="#F4F1E9" opacity="0.60"/>
  <circle cx="88.6" cy="57.0" r="5.1" fill="#F4F1E9" opacity="0.75"/>
  <circle cx="122.0" cy="46.4" r="6.3" fill="#F4F1E9" opacity="0.90"/>
  <circle cx="146.4" cy="46.7" r="1.5" fill="#F4F1E9" opacity="1.05"/>
  <circle cx="156.4" cy="57.0" r="2.7" fill="#F4F1E9" opacity="1.20"/>
  <circle cx="179.1" cy="46.3" r="3.9" fill="#F4F1E9" opacity="0.30"/>
  <circle cx="212.9" cy="46.8" r="5.1" fill="#F4F1E9" opacity="0.45"/>
  <circle cx="231.2" cy="57.0" r="6.3" fill="#F4F1E9" opacity="0.60"/>
  <circle cx="242.3" cy="46.2" r="1.5" fill="#F4F1E9" opacity="0.75"/>
  <circle cx="270.8" cy="46.9" r="2.7" fill="#FF862E" opacity="0.90"/>
  <circle cx="302.0" cy="57.0" r="3.9" fill="#F4F1E9" opacity="1.05"/>
  <circle cx="315.1" cy="46.1" r="5.1" fill="#F4F1E9" opacity="1.20"/>
  <circle cx="330.2" cy="47.0" r="6.3" fill="#F4F1E9" opacity="0.30"/>
  <circle cx="362.9" cy="57.0" r="1.5" fill="#F4F1E9" opacity="0.45"/>
  <circle cx="37.0" cy="82.0" r="2.7" fill="#F4F1E9" opacity="0.60"/>
  <circle cx="47.3" cy="83.1" r="3.9" fill="#F4F1E9" opacity="0.75"/>
  <circle cx="68.2" cy="93.0" r="5.1" fill="#F4F1E9" opacity="0.90"/>
  <circle cx="102.2" cy="81.9" r="6.3" fill="#F4F1E9" opacity="1.05"/>
  <circle cx="122.2" cy="83.2" r="1.5" fill="#F4F1E9" opacity="1.20"/>
  <circle cx="132.7" cy="93.0" r="2.7" fill="#F4F1E9" opacity="0.30"/>
  <circle cx="159.6" cy="81.8" r="3.9" fill="#FF862E" opacity="0.45"/>
  <circle cx="191.9" cy="83.3" r="5.1" fill="#F4F1E9" opacity="0.60"/>
  <circle cx="206.3" cy="92.9" r="6.3" fill="#F4F1E9" opacity="0.75"/>
  <circle cx="220.0" cy="81.7" r="1.5" fill="#F4F1E9" opacity="0.90"/>
  <circle cx="251.7" cy="83.4" r="2.7" fill="#F4F1E9" opacity="1.05"/>
  <circle cx="279.5" cy="92.9" r="3.9" fill="#F4F1E9" opacity="1.20"/>
  <circle cx="290.3" cy="81.6" r="5.1" fill="#F4F1E9" opacity="0.30"/>
  <circle cx="309.4" cy="83.5" r="6.3" fill="#F4F1E9" opacity="0.45"/>
  <circle cx="343.4" cy="92.9" r="1.5" fill="#F4F1E9" opacity="0.60"/>
  <circle cx="365.2" cy="81.5" r="2.7" fill="#F4F1E9" opacity="0.75"/>
  <circle cx="23.3" cy="119.6" r="3.9" fill="#F4F1E9" opacity="0.90"/>
  <circle cx="48.5" cy="128.9" r="5.1" fill="#FF862E" opacity="1.05"/>
  <circle cx="81.6" cy="117.4" r="6.3" fill="#F4F1E9" opacity="1.20"/>
  <circle cx="97.5" cy="119.7" r="1.5" fill="#F4F1E9" opacity="0.30"/>
  <circle cx="110.0" cy="128.9" r="2.7" fill="#F4F1E9" opacity="0.45"/>
  <circle cx="140.5" cy="117.3" r="3.9" fill="#F4F1E9" opacity="0.60"/>
  <circle cx="169.8" cy="119.9" r="5.1" fill="#F4F1E9" opacity="0.75"/>
  <circle cx="181.4" cy="128.8" r="6.3" fill="#F4F1E9" opacity="0.90"/>
  <circle cx="198.8" cy="117.2" r="1.5" fill="#F4F1E9" opacity="1.05"/>
  <circle cx="232.4" cy="120.0" r="2.7" fill="#F4F1E9" opacity="1.20"/>
  <circle cx="256.0" cy="128.8" r="3.9" fill="#F4F1E9" opacity="0.30"/>
  <circle cx="266.0" cy="117.2" r="5.1" fill="#F4F1E9" opacity="0.45"/>
  <circle cx="289.5" cy="120.1" r="6.3" fill="#FF862E" opacity="0.60"/>
  <circle cx="323.1" cy="128.8" r="1.5" fill="#F4F1E9" opacity="0.75"/>
  <circle cx="340.7" cy="117.1" r="2.7" fill="#F4F1E9" opacity="0.90"/>
  <circle cx="352.2" cy="120.2" r="3.9" fill="#F4F1E9" opacity="1.05"/>
  <circle cx="29.3" cy="164.7" r="5.1" fill="#F4F1E9" opacity="1.20"/>
  <circle cx="60.0" cy="153.0" r="6.3" fill="#F4F1E9" opacity="0.30"/>
  <circle cx="72.6" cy="156.3" r="1.5" fill="#F4F1E9" opacity="0.45"/>
  <circle cx="88.4" cy="164.7" r="2.7" fill="#F4F1E9" opacity="0.60"/>
  <circle cx="121.4" cy="152.9" r="3.9" fill="#F4F1E9" opacity="0.75"/>
  <circle cx="146.8" cy="156.4" r="5.1" fill="#F4F1E9" opacity="0.90"/>
  <circle cx="156.9" cy="164.7" r="6.3" fill="#F4F1E9" opacity="1.05"/>
  <circle cx="178.6" cy="152.8" r="1.5" fill="#FF862E" opacity="1.20"/>
  <circle cx="212.5" cy="156.5" r="2.7" fill="#F4F1E9" opacity="0.30"/>
  <circle cx="231.8" cy="164.6" r="3.9" fill="#F4F1E9" opacity="0.45"/>
  <circle cx="242.5" cy="152.7" r="5.1" fill="#F4F1E9" opacity="0.60"/>
  <circle cx="270.2" cy="156.7" r="6.3" fill="#F4F1E9" opacity="0.75"/>
  <circle cx="302.0" cy="164.6" r="1.5" fill="#F4F1E9" opacity="0.90"/>
  <circle cx="315.8" cy="152.7" r="2.7" fill="#F4F1E9" opacity="1.05"/>
  <circle cx="330.1" cy="156.8" r="3.9" fill="#F4F1E9" opacity="1.20"/>
  <circle cx="362.3" cy="164.6" r="5.1" fill="#F4F1E9" opacity="0.30"/>
  <circle cx="37.3" cy="188.6" r="6.3" fill="#F4F1E9" opacity="0.45"/>
  <circle cx="47.9" cy="192.9" r="1.5" fill="#F4F1E9" opacity="0.60"/>
  <circle cx="67.7" cy="200.5" r="2.7" fill="#FF862E" opacity="0.75"/>
  <circle cx="101.8" cy="188.5" r="3.9" fill="#F4F1E9" opacity="0.90"/>
  <circle cx="122.8" cy="193.0" r="5.1" fill="#F4F1E9" opacity="1.05"/>
  <circle cx="133.0" cy="200.5" r="6.3" fill="#F4F1E9" opacity="1.20"/>
  <circle cx="159.0" cy="188.4" r="1.5" fill="#F4F1E9" opacity="0.30"/>
  <circle cx="191.7" cy="193.1" r="2.7" fill="#F4F1E9" opacity="0.45"/>
  <circle cx="207.0" cy="200.4" r="3.9" fill="#F4F1E9" opacity="0.60"/>
  <circle cx="220.0" cy="188.4" r="5.1" fill="#F4F1E9" opacity="0.75"/>
  <circle cx="251.1" cy="193.2" r="6.3" fill="#F4F1E9" opacity="0.90"/>
  <circle cx="279.7" cy="200.4" r="1.5" fill="#F4F1E9" opacity="1.05"/>
  <circle cx="290.9" cy="188.3" r="2.7" fill="#F4F1E9" opacity="1.20"/>
  <circle cx="309.1" cy="193.4" r="3.9" fill="#FF862E" opacity="0.30"/>
  <circle cx="342.9" cy="200.3" r="5.1" fill="#F4F1E9" opacity="0.45"/>
  <circle cx="365.7" cy="188.2" r="6.3" fill="#F4F1E9" opacity="0.60"/>
  <circle cx="23.7" cy="229.5" r="1.5" fill="#F4F1E9" opacity="0.75"/>
  <circle cx="48.0" cy="236.3" r="2.7" fill="#F4F1E9" opacity="0.90"/>
  <circle cx="81.4" cy="224.2" r="3.9" fill="#F4F1E9" opacity="1.05"/>
  <circle cx="98.1" cy="229.6" r="5.1" fill="#F4F1E9" opacity="1.20"/>
  <circle cx="110.1" cy="236.2" r="6.3" fill="#F4F1E9" opacity="0.30"/>
  <circle cx="139.9" cy="224.1" r="1.5" fill="#F4F1E9" opacity="0.45"/>
  <circle cx="169.9" cy="229.7" r="2.7" fill="#F4F1E9" opacity="0.60"/>
  <circle cx="182.1" cy="236.2" r="3.9" fill="#F4F1E9" opacity="0.75"/>
  <circle cx="198.6" cy="224.0" r="5.1" fill="#FF862E" opacity="0.90"/>
  <circle cx="231.9" cy="229.8" r="6.3" fill="#F4F1E9" opacity="1.05"/>
  <circle cx="256.5" cy="236.1" r="1.5" fill="#F4F1E9" opacity="1.20"/>
  <circle cx="266.5" cy="224.0" r="2.7" fill="#F4F1E9" opacity="0.30"/>
  <circle cx="289.0" cy="229.9" r="3.9" fill="#F4F1E9" opacity="0.45"/>
  <circle cx="322.8" cy="236.1" r="5.1" fill="#F4F1E9" opacity="0.60"/>
  <circle cx="341.3" cy="223.9" r="6.3" fill="#F4F1E9" opacity="0.75"/>
  <circle cx="352.3" cy="230.1" r="1.5" fill="#F4F1E9" opacity="0.90"/>
  <circle cx="28.7" cy="272.0" r="2.7" fill="#F4F1E9" opacity="1.05"/>
  <circle cx="60.0" cy="259.9" r="3.9" fill="#F4F1E9" opacity="1.20"/>
  <circle cx="73.2" cy="266.2" r="5.1" fill="#F4F1E9" opacity="0.30"/>
  <circle cx="88.2" cy="271.9" r="6.3" fill="#FF862E" opacity="0.45"/>
  <circle cx="120.8" cy="259.8" r="1.5" fill="#F4F1E9" opacity="0.60"/>
  <circle cx="147.1" cy="266.3" r="2.7" fill="#F4F1E9" opacity="0.75"/>
  <circle cx="157.4" cy="271.9" r="3.9" fill="#F4F1E9" opacity="0.90"/>
  <circle cx="178.1" cy="259.8" r="5.1" fill="#F4F1E9" opacity="1.05"/>
  <circle cx="212.1" cy="266.4" r="6.3" fill="#F4F1E9" opacity="1.20"/>
  <circle cx="232.3" cy="271.8" r="1.5" fill="#F4F1E9" opacity="0.30"/>
  <circle cx="242.8" cy="259.7" r="2.7" fill="#F4F1E9" opacity="0.45"/>
  <circle cx="269.5" cy="266.5" r="3.9" fill="#F4F1E9" opacity="0.60"/>
  <circle cx="301.9" cy="271.8" r="5.1" fill="#F4F1E9" opacity="0.75"/>
  <circle cx="316.4" cy="259.7" r="6.3" fill="#F4F1E9" opacity="0.90"/>
  <circle cx="330.0" cy="266.6" r="1.5" fill="#FF862E" opacity="1.05"/>
  <circle cx="361.6" cy="271.7" r="2.7" fill="#F4F1E9" opacity="1.20"/>
  <circle cx="37.6" cy="295.6" r="3.9" fill="#F4F1E9" opacity="0.30"/>
  <circle cx="48.4" cy="302.8" r="5.1" fill="#F4F1E9" opacity="0.45"/>
  <circle cx="67.4" cy="307.6" r="6.3" fill="#F4F1E9" opacity="0.60"/>
  <circle cx="101.3" cy="295.6" r="1.5" fill="#F4F1E9" opacity="0.75"/>
  <circle cx="123.3" cy="302.9" r="2.7" fill="#F4F1E9" opacity="0.90"/>
  <circle cx="133.4" cy="307.5" r="3.9" fill="#F4F1E9" opacity="1.05"/>
  <circle cx="158.4" cy="295.5" r="5.1" fill="#F4F1E9" opacity="1.20"/>
  <circle cx="191.6" cy="303.0" r="6.3" fill="#F4F1E9" opacity="0.30"/>
  <circle cx="207.6" cy="307.5" r="1.5" fill="#F4F1E9" opacity="0.45"/>
  <circle cx="220.0" cy="295.5" r="2.7" fill="#FF862E" opacity="0.60"/>
  <circle cx="250.4" cy="303.1" r="3.9" fill="#F4F1E9" opacity="0.75"/>
  <circle cx="279.9" cy="307.4" r="5.1" fill="#F4F1E9" opacity="0.90"/>
  <circle cx="291.5" cy="295.4" r="6.3" fill="#F4F1E9" opacity="1.05"/>
  <circle cx="308.8" cy="303.2" r="1.5" fill="#F4F1E9" opacity="1.20"/>
  <circle cx="342.3" cy="307.3" r="2.7" fill="#F4F1E9" opacity="0.30"/>
  <circle cx="366.1" cy="295.4" r="3.9" fill="#F4F1E9" opacity="0.45"/>
  <circle cx="24.1" cy="339.3" r="5.1" fill="#F4F1E9" opacity="0.60"/>
  <circle cx="47.4" cy="343.2" r="6.3" fill="#F4F1E9" opacity="0.75"/>
  <circle cx="81.1" cy="331.4" r="1.5" fill="#F4F1E9" opacity="0.90"/>
  <circle cx="98.8" cy="339.5" r="2.7" fill="#F4F1E9" opacity="1.05"/>
  <circle cx="110.2" cy="343.2" r="3.9" fill="#FF862E" opacity="1.20"/>
  <circle cx="139.2" cy="331.3" r="5.1" fill="#F4F1E9" opacity="0.30"/>
  <circle cx="170.0" cy="339.6" r="6.3" fill="#F4F1E9" opacity="0.45"/>
  <circle cx="182.7" cy="343.1" r="1.5" fill="#F4F1E9" opacity="0.60"/>
  <circle cx="198.3" cy="331.3" r="2.7" fill="#F4F1E9" opacity="0.75"/>
  <circle cx="231.3" cy="339.7" r="3.9" fill="#F4F1E9" opacity="0.90"/>
  <circle cx="256.8" cy="343.0" r="5.1" fill="#F4F1E9" opacity="1.05"/>
  <circle cx="267.0" cy="331.3" r="6.3" fill="#F4F1E9" opacity="1.20"/>
  <circle cx="288.5" cy="339.8" r="1.5" fill="#F4F1E9" opacity="0.30"/>
  <circle cx="322.5" cy="342.9" r="2.7" fill="#F4F1E9" opacity="0.45"/>
  <circle cx="341.9" cy="331.2" r="3.9" fill="#F4F1E9" opacity="0.60"/>
  <circle cx="352.6" cy="339.9" r="5.1" fill="#FF862E" opacity="0.75"/>
  <circle cx="28.1" cy="378.8" r="6.3" fill="#F4F1E9" opacity="0.90"/>
  <circle cx="59.9" cy="367.2" r="1.5" fill="#F4F1E9" opacity="1.05"/>
  <circle cx="73.9" cy="376.0" r="2.7" fill="#F4F1E9" opacity="1.20"/>
  <circle cx="88.1" cy="378.8" r="3.9" fill="#F4F1E9" opacity="0.30"/>
  <circle cx="120.2" cy="367.2" r="5.1" fill="#F4F1E9" opacity="0.45"/>
  <circle cx="147.4" cy="376.1" r="6.3" fill="#F4F1E9" opacity="0.60"/>
  <circle cx="157.9" cy="378.7" r="1.5" fill="#F4F1E9" opacity="0.75"/>
  <circle cx="177.7" cy="367.1" r="2.7" fill="#F4F1E9" opacity="0.90"/>
  <circle cx="211.7" cy="376.3" r="3.9" fill="#F4F1E9" opacity="1.05"/>
  <circle cx="232.9" cy="378.6" r="5.1" fill="#F4F1E9" opacity="1.20"/>
  <circle cx="243.1" cy="367.1" r="6.3" fill="#FF862E" opacity="0.30"/>
  <circle cx="268.9" cy="376.4" r="1.5" fill="#F4F1E9" opacity="0.45"/>
  <circle cx="301.7" cy="378.5" r="2.7" fill="#F4F1E9" opacity="0.60"/>
  <circle cx="317.1" cy="367.1" r="3.9" fill="#F4F1E9" opacity="0.75"/>
  <circle cx="330.0" cy="376.5" r="5.1" fill="#F4F1E9" opacity="0.90"/>
  <circle cx="361.0" cy="378.4" r="6.3" fill="#F4F1E9" opacity="1.05"/>
  <circle cx="37.7" cy="403.1" r="1.5" fill="#F4F1E9" opacity="1.20"/>
  <circle cx="49.0" cy="412.6" r="2.7" fill="#F4F1E9" opacity="0.30"/>
  <circle cx="67.0" cy="414.3" r="3.9" fill="#F4F1E9" opacity="0.45"/>
  <circle cx="100.8" cy="403.1" r="5.1" fill="#F4F1E9" opacity="0.60"/>
  <circle cx="123.7" cy="412.7" r="6.3" fill="#F4F1E9" opacity="0.75"/>
  <circle cx="133.7" cy="414.2" r="1.5" fill="#FF862E" opacity="0.90"/>
  <circle cx="157.9" cy="403.0" r="2.7" fill="#F4F1E9" opacity="1.05"/>
  <circle cx="191.3" cy="412.8" r="3.9" fill="#F4F1E9" opacity="1.20"/>
  <circle cx="208.2" cy="414.1" r="5.1" fill="#F4F1E9" opacity="0.30"/>
  <circle cx="220.1" cy="403.0" r="6.3" fill="#F4F1E9" opacity="0.45"/>
  <circle cx="249.8" cy="412.9" r="1.5" fill="#F4F1E9" opacity="0.60"/>
  <circle cx="280.0" cy="414.0" r="2.7" fill="#F4F1E9" opacity="0.75"/>
  <circle cx="292.2" cy="403.0" r="3.9" fill="#F4F1E9" opacity="0.90"/>
  <circle cx="308.5" cy="413.0" r="5.1" fill="#F4F1E9" opacity="1.05"/>
  <circle cx="341.8" cy="413.9" r="6.3" fill="#F4F1E9" opacity="1.20"/>
  <circle cx="366.5" cy="403.0" r="1.5" fill="#F4F1E9" opacity="0.30"/>
  <circle cx="24.6" cy="449.1" r="2.7" fill="#FF862E" opacity="0.45"/>
  <circle cx="46.9" cy="449.8" r="3.9" fill="#F4F1E9" opacity="0.60"/>
  <circle cx="80.8" cy="439.0" r="5.1" fill="#F4F1E9" opacity="0.75"/>
  <circle cx="99.4" cy="449.2" r="6.3" fill="#F4F1E9" opacity="0.90"/>
  <circle cx="110.4" cy="449.7" r="1.5" fill="#F4F1E9" opacity="1.05"/>
  <circle cx="138.6" cy="439.0" r="2.7" fill="#F4F1E9" opacity="1.20"/>
  <circle cx="170.0" cy="449.3" r="3.9" fill="#F4F1E9" opacity="0.30"/>
  <circle cx="183.3" cy="449.6" r="5.1" fill="#F4F1E9" opacity="0.45"/>
  <circle cx="198.2" cy="439.0" r="6.3" fill="#F4F1E9" opacity="0.60"/>
  <circle cx="230.7" cy="449.4" r="1.5" fill="#F4F1E9" opacity="0.75"/>
  <circle cx="257.1" cy="449.5" r="2.7" fill="#F4F1E9" opacity="0.90"/>
  <circle cx="267.5" cy="439.0" r="3.9" fill="#FF862E" opacity="1.05"/>
  <circle cx="288.0" cy="449.5" r="5.1" fill="#F4F1E9" opacity="1.20"/>
  <circle cx="322.0" cy="449.4" r="6.3" fill="#F4F1E9" opacity="0.30"/>
  <circle cx="342.4" cy="439.0" r="1.5" fill="#F4F1E9" opacity="0.45"/>
  <circle cx="352.8" cy="449.6" r="2.7" fill="#F4F1E9" opacity="0.60"/>
  <circle cx="27.4" cy="485.3" r="3.9" fill="#F4F1E9" opacity="0.75"/>
  <circle cx="59.8" cy="475.0" r="5.1" fill="#F4F1E9" opacity="0.90"/>
  <circle cx="74.5" cy="485.7" r="6.3" fill="#F4F1E9" opacity="1.05"/>
  <circle cx="88.0" cy="485.2" r="1.5" fill="#F4F1E9" opacity="1.20"/>
  <circle cx="119.5" cy="475.0" r="2.7" fill="#F4F1E9" opacity="0.30"/>
  <circle cx="147.6" cy="485.8" r="3.9" fill="#F4F1E9" opacity="0.45"/>
  <circle cx="158.5" cy="485.1" r="5.1" fill="#FF862E" opacity="0.60"/>
  <circle cx="177.3" cy="475.0" r="6.3" fill="#F4F1E9" opacity="0.75"/>
  <circle cx="211.2" cy="485.9" r="1.5" fill="#F4F1E9" opacity="0.90"/>
  <circle cx="233.4" cy="485.0" r="2.7" fill="#F4F1E9" opacity="1.05"/>
  <circle cx="243.4" cy="475.0" r="3.9" fill="#F4F1E9" opacity="1.20"/>
  <circle cx="268.3" cy="486.0" r="5.1" fill="#F4F1E9" opacity="0.30"/>
  <circle cx="301.5" cy="484.9" r="6.3" fill="#F4F1E9" opacity="0.45"/>
  <circle cx="317.7" cy="475.0" r="1.5" fill="#F4F1E9" opacity="0.60"/>
  <circle cx="330.0" cy="486.1" r="2.7" fill="#F4F1E9" opacity="0.75"/>
  <circle cx="360.3" cy="484.8" r="3.9" fill="#F4F1E9" opacity="0.90"/>
  <circle cx="37.9" cy="511.0" r="5.1" fill="#F4F1E9" opacity="1.05"/>
  <circle cx="49.6" cy="522.2" r="6.3" fill="#FF862E" opacity="1.20"/>
  <circle cx="66.7" cy="520.7" r="1.5" fill="#F4F1E9" opacity="0.30"/>
  <circle cx="100.2" cy="511.1" r="2.7" fill="#F4F1E9" opacity="0.45"/>
  <circle cx="124.2" cy="522.3" r="3.9" fill="#F4F1E9" opacity="0.60"/>
  <circle cx="134.2" cy="520.6" r="5.1" fill="#F4F1E9" opacity="0.75"/>
  <circle cx="157.3" cy="511.1" r="6.3" fill="#F4F1E9" opacity="0.90"/>
  <circle cx="191.0" cy="522.4" r="1.5" fill="#F4F1E9" opacity="1.05"/>
  <circle cx="208.9" cy="520.5" r="2.7" fill="#F4F1E9" opacity="1.20"/>
  <circle cx="220.2" cy="511.1" r="3.9" fill="#F4F1E9" opacity="0.30"/>
  <circle cx="249.1" cy="522.5" r="5.1" fill="#F4F1E9" opacity="0.45"/>
  <circle cx="280.0" cy="520.4" r="6.3" fill="#F4F1E9" opacity="0.60"/>
  <circle cx="292.8" cy="511.1" r="1.5" fill="#FF862E" opacity="0.75"/>
  <circle cx="308.3" cy="522.6" r="2.7" fill="#F4F1E9" opacity="0.90"/>
  <circle cx="341.2" cy="520.2" r="3.9" fill="#F4F1E9" opacity="1.05"/>
  <circle cx="366.9" cy="511.1" r="5.1" fill="#F4F1E9" opacity="1.20"/>
  <circle cx="25.0" cy="558.7" r="6.3" fill="#F4F1E9" opacity="0.30"/>
  <circle cx="46.4" cy="556.1" r="1.5" fill="#F4F1E9" opacity="0.45"/>
  <circle cx="80.4" cy="547.2" r="2.7" fill="#F4F1E9" opacity="0.60"/>
  <circle cx="99.9" cy="558.8" r="3.9" fill="#F4F1E9" opacity="0.75"/>
  <circle cx="110.6" cy="556.0" r="5.1" fill="#F4F1E9" opacity="0.90"/>
  <circle cx="138.0" cy="547.2" r="6.3" fill="#F4F1E9" opacity="1.05"/>
  <circle cx="169.9" cy="558.9" r="1.5" fill="#F4F1E9" opacity="1.20"/>
  <circle cx="184.0" cy="555.9" r="2.7" fill="#FF862E" opacity="0.30"/>
  <circle cx="198.1" cy="547.2" r="3.9" fill="#F4F1E9" opacity="0.45"/>
  <circle cx="230.1" cy="558.9" r="5.1" fill="#F4F1E9" opacity="0.60"/>
  <circle cx="257.4" cy="555.8" r="6.3" fill="#F4F1E9" opacity="0.75"/>
  <circle cx="268.0" cy="547.3" r="1.5" fill="#F4F1E9" opacity="0.90"/>
  <circle cx="287.6" cy="559.0" r="2.7" fill="#F4F1E9" opacity="1.05"/>
  <circle cx="321.6" cy="555.7" r="3.9" fill="#F4F1E9" opacity="1.20"/>
  <circle cx="342.9" cy="547.3" r="5.1" fill="#F4F1E9" opacity="0.30"/>
  <circle cx="353.1" cy="559.1" r="6.3" fill="#F4F1E9" opacity="0.45"/>
  <circle cx="26.8" cy="591.6" r="1.5" fill="#F4F1E9" opacity="0.60"/>
  <circle cx="59.7" cy="583.3" r="2.7" fill="#F4F1E9" opacity="0.75"/>
  <circle cx="75.2" cy="595.2" r="3.9" fill="#FF862E" opacity="0.90"/>
  <circle cx="88.0" cy="591.5" r="5.1" fill="#F4F1E9" opacity="1.05"/>
  <circle cx="118.9" cy="583.4" r="6.3" fill="#F4F1E9" opacity="1.20"/>
  <circle cx="147.8" cy="595.3" r="1.5" fill="#F4F1E9" opacity="0.30"/>
  <circle cx="159.1" cy="591.3" r="2.7" fill="#F4F1E9" opacity="0.45"/>
  <circle cx="177.0" cy="583.4" r="3.9" fill="#F4F1E9" opacity="0.60"/>
  <circle cx="210.7" cy="595.3" r="5.1" fill="#F4F1E9" opacity="0.75"/>
  <circle cx="233.8" cy="591.2" r="6.3" fill="#F4F1E9" opacity="0.90"/>
  <circle cx="243.8" cy="583.4" r="1.5" fill="#F4F1E9" opacity="1.05"/>
  <circle cx="267.8" cy="595.4" r="2.7" fill="#F4F1E9" opacity="1.20"/>
  <circle cx="301.3" cy="591.1" r="3.9" fill="#F4F1E9" opacity="0.30"/>
  <circle cx="318.4" cy="583.5" r="5.1" fill="#FF862E" opacity="0.45"/>
  <circle cx="330.1" cy="595.5" r="6.3" fill="#F4F1E9" opacity="0.60"/>
  <circle cx="359.7" cy="591.0" r="1.5" fill="#F4F1E9" opacity="0.75"/>
  <circle cx="38.0" cy="619.5" r="2.7" fill="#F4F1E9" opacity="0.90"/>
  <circle cx="50.3" cy="631.6" r="3.9" fill="#F4F1E9" opacity="1.05"/>
  <circle cx="66.5" cy="626.9" r="5.1" fill="#F4F1E9" opacity="1.20"/>
  <circle cx="99.7" cy="619.6" r="6.3" fill="#F4F1E9" opacity="0.30"/>
  <circle cx="124.6" cy="631.6" r="1.5" fill="#F4F1E9" opacity="0.45"/>
  <circle cx="134.6" cy="626.8" r="2.7" fill="#F4F1E9" opacity="0.60"/>
  <circle cx="156.8" cy="619.6" r="3.9" fill="#F4F1E9" opacity="0.75"/>
  <circle cx="190.7" cy="631.7" r="5.1" fill="#F4F1E9" opacity="0.90"/>
  <circle cx="209.5" cy="626.6" r="6.3" fill="#FF862E" opacity="1.05"/>
  <circle cx="220.4" cy="619.7" r="1.5" fill="#F4F1E9" opacity="1.20"/>
  <circle cx="248.5" cy="631.8" r="2.7" fill="#F4F1E9" opacity="0.30"/>
  <circle cx="280.0" cy="626.5" r="3.9" fill="#F4F1E9" opacity="0.45"/>
  <circle cx="293.4" cy="619.7" r="5.1" fill="#F4F1E9" opacity="0.60"/>
  <circle cx="308.2" cy="631.8" r="6.3" fill="#F4F1E9" opacity="0.75"/>
  <circle cx="340.6" cy="626.4" r="1.5" fill="#F4F1E9" opacity="0.90"/>
  <circle cx="367.2" cy="619.8" r="2.7" fill="#F4F1E9" opacity="1.05"/>
  <circle cx="25.6" cy="667.9" r="3.9" fill="#F4F1E9" opacity="1.20"/>
  <circle cx="46.0" cy="662.3" r="5.1" fill="#F4F1E9" opacity="0.30"/>
  <circle cx="80.0" cy="655.8" r="6.3" fill="#F4F1E9" opacity="0.45"/>
  <circle cx="100.5" cy="668.0" r="1.5" fill="#FF862E" opacity="0.60"/>
  <circle cx="110.9" cy="662.2" r="2.7" fill="#F4F1E9" opacity="0.75"/>
  <circle cx="137.3" cy="655.9" r="3.9" fill="#F4F1E9" opacity="0.90"/>
  <circle cx="169.8" cy="668.0" r="5.1" fill="#F4F1E9" opacity="1.05"/>
  <circle cx="184.6" cy="662.0" r="6.3" fill="#F4F1E9" opacity="1.20"/>
  <circle cx="198.0" cy="655.9" r="1.5" fill="#F4F1E9" opacity="0.30"/>
  <circle cx="229.4" cy="668.1" r="2.7" fill="#F4F1E9" opacity="0.45"/>
  <circle cx="257.6" cy="661.9" r="3.9" fill="#F4F1E9" opacity="0.60"/>
  <circle cx="268.6" cy="656.0" r="5.1" fill="#F4F1E9" opacity="0.75"/>
  <circle cx="287.2" cy="668.1" r="6.3" fill="#F4F1E9" opacity="0.90"/>
  <circle cx="321.1" cy="661.8" r="1.5" fill="#F4F1E9" opacity="1.05"/>
  <circle cx="343.4" cy="656.1" r="2.7" fill="#FF862E" opacity="1.20"/>
  <circle cx="353.5" cy="668.2" r="3.9" fill="#F4F1E9" opacity="0.30"/>
  <circle cx="26.2" cy="697.7" r="5.1" fill="#F4F1E9" opacity="0.45"/>
  <circle cx="59.5" cy="692.1" r="6.3" fill="#F4F1E9" opacity="0.60"/>
  <circle cx="75.8" cy="704.2" r="1.5" fill="#F4F1E9" opacity="0.75"/>
  <circle cx="88.0" cy="697.6" r="2.7" fill="#F4F1E9" opacity="0.90"/>
  <circle cx="118.2" cy="692.2" r="3.9" fill="#F4F1E9" opacity="1.05"/>
  <circle cx="147.9" cy="704.3" r="5.1" fill="#F4F1E9" opacity="1.20"/>
  <circle cx="159.7" cy="697.5" r="6.3" fill="#F4F1E9" opacity="0.30"/>
  <circle cx="176.7" cy="692.2" r="1.5" fill="#F4F1E9" opacity="0.45"/>
  <circle cx="210.1" cy="704.3" r="2.7" fill="#F4F1E9" opacity="0.60"/>
  <circle cx="234.2" cy="697.3" r="3.9" fill="#FF862E" opacity="0.75"/>
  <circle cx="244.2" cy="692.3" r="5.1" fill="#F4F1E9" opacity="0.90"/>
  <circle cx="267.2" cy="704.4" r="6.3" fill="#F4F1E9" opacity="1.05"/>
  <circle cx="301.0" cy="697.2" r="1.5" fill="#F4F1E9" opacity="1.20"/>
  <circle cx="319.0" cy="692.4" r="2.7" fill="#F4F1E9" opacity="0.30"/>
  <circle cx="330.2" cy="704.4" r="3.9" fill="#F4F1E9" opacity="0.45"/>
  <circle cx="359.0" cy="697.1" r="5.1" fill="#F4F1E9" opacity="0.60"/>
  <circle cx="38.0" cy="728.5" r="6.3" fill="#F4F1E9" opacity="0.75"/>
  <circle cx="50.9" cy="740.5" r="1.5" fill="#F4F1E9" opacity="0.90"/>
  <circle cx="66.3" cy="733.0" r="2.7" fill="#F4F1E9" opacity="1.05"/>
  <circle cx="99.1" cy="728.5" r="3.9" fill="#F4F1E9" opacity="1.20"/>
  <circle cx="124.9" cy="740.5" r="5.1" fill="#FF862E" opacity="0.30"/>
  <circle cx="135.1" cy="732.9" r="6.3" fill="#F4F1E9" opacity="0.45"/>
  <circle cx="156.3" cy="728.6" r="1.5" fill="#F4F1E9" opacity="0.60"/>
  <circle cx="190.3" cy="740.6" r="2.7" fill="#F4F1E9" opacity="0.75"/>
  <circle cx="210.0" cy="732.8" r="3.9" fill="#F4F1E9" opacity="0.90"/>
  <circle cx="220.6" cy="728.7" r="5.1" fill="#F4F1E9" opacity="1.05"/>
  <circle cx="247.9" cy="740.6" r="6.3" fill="#F4F1E9" opacity="1.20"/>
  <circle cx="279.9" cy="732.6" r="1.5" fill="#F4F1E9" opacity="0.30"/>
  <circle cx="294.1" cy="728.8" r="2.7" fill="#F4F1E9" opacity="0.45"/>
  <circle cx="308.1" cy="740.6" r="3.9" fill="#F4F1E9" opacity="0.60"/>
  <circle cx="339.9" cy="732.5" r="5.1" fill="#F4F1E9" opacity="0.75"/>
  <circle cx="367.4" cy="728.8" r="6.3" fill="#FF862E" opacity="0.90"/>
  <text x="200" y="735" text-anchor="middle" font-family="system-ui,sans-serif" font-size="36" font-weight="900" fill="rgba(244, 241, 233, 0.85)" letter-spacing="6">NOISE</text>

  <!-- Signal Orange Divider Bar -->
  <rect x="393" y="40" width="14" height="720" fill="#FF862E"/>

  <!-- Right Side: Enclosed Clean Signal -->
  <rect x="430" y="60" width="340" height="620" rx="12" stroke="#F4F1E9" stroke-width="3" fill="none"/>
  <line x1="430" y1="370" x2="770" y2="370" stroke="#F4F1E9" stroke-width="1.5" stroke-dasharray="4 4" opacity="0.35"/>

  <path d="M430 370 C 490 370, 520 160, 600 240 S 710 500, 770 370" stroke="#23C5EF" stroke-width="7.5" stroke-linecap="round" fill="none"/>

  <text x="600" y="130" text-anchor="middle" font-family="system-ui,sans-serif" font-size="40" font-weight="900" fill="#F4F1E9" letter-spacing="6">SIGNAL</text>
  <text x="600" y="735" text-anchor="middle" font-family="ui-monospace,monospace" font-size="15" font-weight="800" fill="#23C5EF" letter-spacing="4">BPF: ACTIVE</text>
</svg>
